<?xml version="1.0"?>
<svg xmlns="http://www.w3.org/2000/svg" height="512px" viewBox="0 0 16 16" width="512px"><g><path d="m9 0v2h1.58594l-1.11487 1.11487c-.981018-.699097-2.17725-1.11487-3.47107-1.11487-3.30859 0-6 2.69141-6 6s2.69141 6 6 6 6-2.69141 6-6c0-1.29382-.415771-2.49005-1.11487-3.47107l1.11487-1.11487v1.58594h2v-5zm-3 12c-2.20557 0-4-1.79443-4-4s1.79443-4 4-4 4 1.79443 4 4-1.79443 4-4 4z" transform="translate(1 1)" data-original="#000000" class="active-path" data-old_color="#000000" fill="#0019FF"/></g> </svg>
